<?xml version="1.0" standalone="no"?>
<!DOCTYPE svg PUBLIC "-//W3C//DTD SVG 20010904//EN"
 "http://www.w3.org/TR/2001/REC-SVG-20010904/DTD/svg10.dtd">
<svg version="1.0" xmlns="http://www.w3.org/2000/svg"
 width="859.000000pt" height="478.000000pt" viewBox="0 0 859.000000 478.000000"
 preserveAspectRatio="xMidYMid meet">

<g transform="translate(0.000000,478.000000) scale(0.100000,-0.100000)"
fill="#000000" stroke="none">
<path d="M4914 4747 c-20 -18 -28 -35 -31 -73 -7 -68 22 -103 87 -109 l45 -4
-45 9 c-25 5 -53 19 -62 31 -20 24 -23 80 -7 112 16 29 13 27 56 42 34 13 35
14 11 15 -15 0 -39 -10 -54 -23z"/>
<path d="M5043 4763 c15 -2 39 -2 55 0 15 2 2 4 -28 4 -30 0 -43 -2 -27 -4z"/>
<path d="M5210 4746 c153 -26 268 -85 393 -205 151 -145 235 -308 266 -519 7
-45 9 -49 10 -21 2 63 -45 224 -94 318 -126 244 -363 418 -593 436 -66 5 -66
4 18 -9z"/>
<path d="M4623 4731 c81 -6 91 -8 113 -34 31 -36 31 -78 0 -114 -18 -21 -36
-29 -77 -34 l-54 -6 53 -2 c47 -1 57 3 83 28 23 23 29 38 29 71 0 33 -6 48
-29 71 -28 28 -32 29 -118 27 l-88 -1 88 -6z"/>
<path d="M4410 4706 c-90 -38 -121 -56 -173 -104 -72 -68 -92 -111 -92 -202 0
-132 63 -219 222 -307 90 -51 153 -109 153 -144 0 -39 -31 -80 -88 -116 -145
-91 -226 -178 -237 -253 l-5 -35 11 34 c25 79 90 151 205 225 174 111 167 176
-28 293 -126 75 -191 141 -213 216 -34 113 -12 188 80 276 66 64 131 100 225
125 41 11 47 15 25 15 -16 0 -55 -10 -85 -23z"/>
<path d="M5033 4553 c9 -2 25 -2 35 0 9 3 1 5 -18 5 -19 0 -27 -2 -17 -5z"/>
<path d="M4432 4510 c-64 -32 -83 -47 -97 -76 -39 -82 9 -149 177 -250 151
-91 222 -152 241 -206 9 -24 16 -35 16 -25 3 55 -83 139 -236 229 -57 34 -118
74 -137 90 -73 60 -84 146 -23 192 50 37 116 67 166 76 45 7 45 8 10 9 -25 1
-63 -12 -117 -39z"/>
<path d="M5185 4525 c180 -41 315 -121 401 -237 49 -66 98 -162 114 -226 l10
-37 -5 40 c-2 22 -23 78 -46 125 -59 119 -161 221 -279 278 -79 38 -229 83
-275 81 -11 0 25 -11 80 -24z"/>
<path d="M1570 4060 l0 -189 -33 -16 c-73 -34 -171 -166 -201 -269 -11 -38
-29 -64 -66 -101 -50 -48 -51 -52 -46 -94 8 -58 52 -137 91 -161 19 -12 48
-20 71 -19 38 1 38 1 -10 10 -34 5 -59 17 -78 36 -34 34 -73 129 -57 139 6 3
8 16 5 29 -4 17 3 29 33 53 26 21 45 48 56 79 51 141 122 243 199 284 l46 24
1 165 0 165 39 -140 c22 -77 37 -147 35 -156 -3 -9 4 -27 16 -40 11 -13 19
-17 16 -9 -24 79 -87 323 -85 326 2 2 41 -66 87 -151 46 -85 85 -155 87 -155
3 0 0 9 -6 19 -16 31 -12 38 18 35 20 -3 18 -1 -8 7 -32 9 -42 22 -118 164
-46 85 -86 155 -88 155 -2 0 -4 -85 -4 -190z"/>
<path d="M8207 4237 c-4 -11 -4 -24 0 -29 3 -6 1 -8 -4 -5 -7 4 -39 -44 -78
-116 -77 -139 -90 -157 -118 -157 -11 0 -18 -3 -14 -6 3 -4 17 -4 31 0 19 5
41 35 97 138 40 72 74 127 76 122 2 -6 -12 -80 -30 -165 -19 -85 -33 -156 -31
-158 2 -2 12 7 23 20 l20 24 1 -22 c0 -13 5 -23 10 -23 6 0 8 11 4 28 -9 37
-13 40 -30 18 -19 -26 -18 -21 15 124 l29 125 1 -147 1 -146 45 -22 c73 -35
170 -164 195 -259 7 -28 28 -61 58 -93 39 -42 46 -56 49 -95 4 -74 -48 -153
-113 -173 -21 -6 -23 -9 -9 -9 41 -2 85 37 115 102 44 91 41 116 -19 166 -41
34 -53 53 -71 106 -38 114 -149 254 -214 271 l-26 6 -2 197 c-2 108 -6 188
-11 178z"/>
<path d="M1973 4083 c-18 -81 -38 -150 -45 -155 -10 -6 -9 -8 3 -8 13 0 22 29
44 130 16 72 31 130 34 130 3 0 35 -82 70 -183 129 -371 267 -684 358 -816 33
-47 52 -62 137 -107 106 -56 199 -90 268 -99 30 -4 21 1 -29 14 -98 27 -178
60 -266 110 -62 36 -79 52 -115 109 -100 156 -233 468 -353 822 -34 102 -65
188 -68 192 -3 4 -21 -59 -38 -139z"/>
<path d="M7762 4200 c-6 -14 -37 -97 -68 -185 -123 -351 -245 -631 -347 -793
-47 -75 -59 -87 -127 -126 -87 -50 -128 -69 -225 -103 -47 -16 -57 -22 -32
-18 51 8 176 61 265 114 62 36 81 54 117 109 100 156 245 486 372 844 26 76
51 138 54 138 3 0 18 -57 33 -127 16 -71 34 -131 40 -135 6 -4 40 -7 76 -6
l65 2 -70 5 c-80 7 -66 -15 -114 186 -25 108 -29 117 -39 95z"/>
<path d="M5713 3965 c0 -33 2 -45 4 -27 2 18 2 45 0 60 -2 15 -4 0 -4 -33z"/>
<path d="M1630 3903 c0 -17 -6 -34 -12 -36 -8 -4 -7 -6 3 -6 19 -1 33 48 18
64 -5 5 -9 -3 -9 -22z"/>
<path d="M5883 3890 c0 -25 2 -35 4 -22 2 12 2 32 0 45 -2 12 -4 2 -4 -23z"/>
<path d="M1843 3913 c15 -2 37 -2 50 0 12 2 0 4 -28 4 -27 0 -38 -2 -22 -4z"/>
<path d="M4761 3898 c-2 -32 -64 -89 -175 -162 -122 -80 -172 -129 -181 -178
-12 -63 5 -83 117 -137 136 -65 194 -123 243 -241 19 -47 35 -76 35 -66 0 11
-18 56 -40 102 -57 117 -109 163 -272 232 -126 54 -96 150 86 268 39 26 88 58
108 71 42 29 92 96 85 115 -4 9 -6 7 -6 -4z"/>
<path d="M5713 3790 c0 -25 2 -35 4 -22 2 12 2 32 0 45 -2 12 -4 2 -4 -23z"/>
<path d="M5873 3780 c0 -25 2 -35 4 -22 2 12 2 32 0 45 -2 12 -4 2 -4 -23z"/>
<path d="M5701 3725 c-3 -40 -50 -136 -129 -261 -85 -136 -167 -240 -348 -440
-61 -67 -125 -149 -143 -183 -31 -59 -82 -232 -80 -275 0 -11 11 25 24 82 34
145 78 230 173 332 131 142 279 318 326 388 124 187 193 323 183 361 -4 12 -5
11 -6 -4z"/>
<path d="M5861 3714 c-2 -47 -52 -214 -91 -308 -48 -116 -110 -227 -192 -348
-48 -70 -59 -93 -54 -113 10 -39 44 -49 113 -37 l58 11 -58 -5 c-61 -6 -107
12 -107 41 0 7 28 56 63 107 83 123 147 240 196 363 43 107 85 266 78 293 -3
12 -5 11 -6 -4z"/>
<path d="M4182 3515 c0 -16 2 -22 5 -12 2 9 2 23 0 30 -3 6 -5 -1 -5 -18z"/>
<path d="M4191 3465 c-1 -33 34 -99 68 -128 19 -16 73 -39 134 -58 117 -36
148 -55 171 -103 35 -74 19 -120 -73 -211 -57 -56 -65 -60 -119 -66 l-57 -6
51 -2 c59 -1 102 24 172 104 65 74 69 154 10 220 -25 29 -49 41 -144 71 -131
40 -174 74 -199 153 -7 25 -14 37 -14 26z"/>
<path d="M1455 3198 c54 -19 84 -48 115 -111 29 -59 59 -181 61 -250 1 -21 3
-25 6 -13 7 29 -16 162 -39 226 -34 92 -100 161 -153 159 -15 0 -12 -3 10 -11z"/>
<path d="M8299 3187 c-77 -41 -132 -164 -144 -320 -4 -54 -3 -51 9 24 25 148
69 244 130 285 13 8 43 18 67 23 38 8 39 9 13 10 -17 1 -51 -9 -75 -22z"/>
<path d="M4802 3065 c0 -16 2 -22 5 -12 2 9 2 23 0 30 -3 6 -5 -1 -5 -18z"/>
<path d="M4782 2997 c-7 -20 -39 -70 -72 -112 -33 -43 -60 -85 -60 -94 0 -10
12 -33 26 -52 38 -51 75 -127 95 -194 10 -33 18 -51 18 -40 1 37 -47 154 -88
216 -22 34 -41 66 -41 72 0 5 24 42 54 81 58 77 89 131 84 147 -2 6 -9 -5 -16
-24z"/>
<path d="M6263 2983 c43 -2 110 -2 150 0 40 1 5 3 -78 3 -82 0 -115 -2 -72 -3z"/>
<path d="M6083 2973 c15 -2 39 -2 55 0 15 2 2 4 -28 4 -30 0 -43 -2 -27 -4z"/>
<path d="M6533 2973 c15 -2 39 -2 55 0 15 2 2 4 -28 4 -30 0 -43 -2 -27 -4z"/>
<path d="M2908 2963 c12 -2 32 -2 45 0 12 2 2 4 -23 4 -25 0 -35 -2 -22 -4z"/>
<path d="M3333 2963 c70 -2 184 -2 255 0 70 1 12 3 -128 3 -140 0 -198 -2
-127 -3z"/>
<path d="M5988 2963 c12 -2 30 -2 40 0 9 3 -1 5 -23 4 -22 0 -30 -2 -17 -4z"/>
<path d="M6658 2963 c18 -2 45 -2 60 0 15 2 0 4 -33 4 -33 0 -45 -2 -27 -4z"/>
<path d="M6868 2963 c12 -2 30 -2 40 0 9 3 -1 5 -23 4 -22 0 -30 -2 -17 -4z"/>
<path d="M3038 2953 c23 -2 59 -2 80 0 20 2 1 4 -43 4 -44 0 -61 -2 -37 -4z"/>
<path d="M3763 2953 c15 -2 39 -2 55 0 15 2 2 4 -28 4 -30 0 -43 -2 -27 -4z"/>
<path d="M5908 2953 c12 -2 30 -2 40 0 9 3 -1 5 -23 4 -22 0 -30 -2 -17 -4z"/>
<path d="M3868 2943 c12 -2 32 -2 45 0 12 2 2 4 -23 4 -25 0 -35 -2 -22 -4z"/>
<path d="M5790 2940 c-27 -6 -29 -8 -10 -8 14 -1 43 3 65 7 33 7 35 9 10 9
-16 -1 -46 -4 -65 -8z"/>
<path d="M3980 2929 c60 -10 108 -9 55 2 -22 4 -53 8 -70 7 -22 0 -19 -3 15
-9z"/>
<path d="M5713 2923 c9 -2 23 -2 30 0 6 3 -1 5 -18 5 -16 0 -22 -2 -12 -5z"/>
<path d="M4093 2913 c9 -2 23 -2 30 0 6 3 -1 5 -18 5 -16 0 -22 -2 -12 -5z"/>
<path d="M4165 2901 c31 -9 102 -14 94 -7 -2 2 -31 6 -64 9 -39 4 -50 3 -30
-2z"/>
<path d="M8143 2735 c0 -38 2 -53 4 -32 2 20 2 52 0 70 -2 17 -4 1 -4 -38z"/>
<path d="M1643 2725 c0 -38 2 -53 4 -32 2 20 2 52 0 70 -2 17 -4 1 -4 -38z"/>
<path d="M8127 2600 c-11 -82 -53 -260 -92 -390 -36 -121 -108 -436 -103 -452
2 -6 21 68 42 164 21 95 57 241 81 323 49 170 88 354 83 388 -2 12 -7 -3 -11
-33z"/>
<path d="M1652 2610 c0 -19 2 -27 5 -17 2 9 2 25 0 35 -3 9 -5 1 -5 -18z"/>
<path d="M1661 2557 c-1 -27 36 -188 79 -342 21 -77 47 -178 56 -224 10 -46
19 -80 21 -74 5 14 -40 212 -72 318 -14 50 -39 146 -55 215 -16 69 -29 117
-29 107z"/>
<path d="M4980 2460 c-7 -44 -11 -83 -8 -85 3 -3 10 32 17 76 7 45 10 83 8 85
-2 3 -10 -32 -17 -76z"/>
<path d="M4792 2450 c0 -19 2 -27 5 -17 2 9 2 25 0 35 -3 9 -5 1 -5 -18z"/>
<path d="M4803 2360 c0 -30 2 -43 4 -27 2 15 2 39 0 55 -2 15 -4 2 -4 -28z"/>
<path d="M4963 2325 c0 -22 2 -30 4 -17 2 12 2 30 0 40 -3 9 -5 -1 -4 -23z"/>
<path d="M2436 2265 c67 -225 76 -270 71 -360 -6 -98 -29 -174 -131 -428 -30
-75 -80 -219 -111 -320 -31 -100 -76 -241 -101 -313 -24 -73 -57 -194 -74
-270 -43 -203 -54 -229 -105 -259 -49 -29 -121 -52 -220 -70 -38 -7 -57 -14
-41 -14 49 -2 198 38 251 67 27 15 57 41 67 58 10 18 32 97 49 175 17 79 55
218 84 309 29 91 83 258 119 373 37 114 69 207 71 207 2 0 9 -27 16 -60 16
-84 22 -69 7 18 l-12 71 38 96 c21 53 45 99 53 102 9 4 11 8 4 12 -7 5 -2 32
15 80 16 46 27 105 31 160 5 75 1 101 -25 201 -16 63 -37 131 -46 150 -9 19
-14 26 -10 15z"/>
<path d="M4953 2235 c0 -27 2 -38 4 -22 2 15 2 37 0 50 -2 12 -4 0 -4 -28z"/>
<path d="M7291 2213 c-34 -115 -53 -193 -48 -206 2 -7 7 5 11 26 4 21 20 84
36 140 16 55 28 103 25 105 -2 2 -13 -27 -24 -65z"/>
<path d="M4944 2010 c0 -91 2 -128 3 -82 2 45 2 119 0 165 -1 45 -3 8 -3 -83z"/>
<path d="M4803 2095 c0 -33 2 -45 4 -27 2 18 2 45 0 60 -2 15 -4 0 -4 -33z"/>
<path d="M4793 1995 c0 -22 2 -30 4 -17 2 12 2 30 0 40 -3 9 -5 -1 -4 -23z"/>
<path d="M7233 1950 c0 -25 2 -35 4 -22 2 12 2 32 0 45 -2 12 -4 2 -4 -23z"/>
<path d="M4782 1925 c0 -16 2 -22 5 -12 2 9 2 23 0 30 -3 6 -5 -1 -5 -18z"/>
<path d="M1822 1885 c0 -11 6 -42 13 -70 7 -27 13 -41 13 -30 0 11 -6 43 -13
70 -7 28 -13 41 -13 30z"/>
<path d="M4772 1870 c0 -14 2 -19 5 -12 2 6 2 18 0 25 -3 6 -5 1 -5 -13z"/>
<path d="M7245 1844 c3 -28 17 -79 30 -113 29 -71 29 -71 11 -71 -8 0 -59 -21
-113 -46 -253 -118 -455 -191 -638 -229 -60 -13 -99 -24 -85 -24 66 -1 335 75
489 138 62 26 70 28 74 13 4 -14 5 -13 6 3 1 15 31 33 131 78 70 33 136 57
146 55 23 -4 96 -179 96 -228 0 -26 2 -30 7 -16 9 24 35 -44 115 -299 30 -99
73 -230 95 -291 21 -60 50 -159 64 -219 14 -61 26 -101 26 -90 1 37 -39 189
-88 335 -28 80 -75 226 -106 325 -54 169 -99 287 -198 515 -22 52 -47 122 -54
155 l-13 60 5 -51z"/>
<path d="M4742 1762 c-13 -43 -43 -109 -68 -147 -24 -37 -44 -72 -44 -76 0
-15 -107 -186 -243 -386 -168 -250 -180 -270 -232 -413 -24 -65 -87 -212 -141
-326 -53 -115 -112 -245 -131 -289 -19 -43 -39 -85 -45 -92 -8 -10 -53 -13
-178 -13 l-169 0 -20 26 c-28 35 -28 102 -1 136 21 27 78 54 145 69 l40 8 -48
-4 c-51 -5 -116 -34 -147 -65 -37 -37 -19 -157 25 -174 9 -3 92 -6 185 -6 122
0 170 3 178 13 6 6 24 46 40 87 17 41 77 176 135 300 58 124 119 264 135 312
32 89 78 188 88 188 9 0 147 -116 186 -157 20 -21 48 -58 62 -83 14 -25 26
-38 26 -28 0 31 -88 133 -179 208 -50 41 -91 76 -91 77 0 6 80 127 164 248 49
72 122 183 162 248 65 106 73 116 77 90 3 -20 4 -16 6 15 1 31 12 61 35 100
34 56 81 183 74 202 -1 5 -14 -26 -26 -68z"/>
<path d="M4951 1820 c-1 -46 28 -132 63 -190 30 -49 36 -68 38 -122 1 -58 2
-59 5 -14 l4 49 75 -119 c41 -66 133 -202 204 -304 71 -102 130 -188 130 -192
0 -3 -37 -37 -82 -74 -132 -108 -199 -190 -198 -241 1 -10 7 -1 14 20 23 64
121 166 248 258 l28 20 19 -33 c11 -17 37 -77 57 -133 20 -55 94 -221 164
-370 69 -148 133 -286 140 -305 18 -46 29 -60 49 -59 13 0 13 2 -2 8 -11 4
-34 44 -56 96 -21 50 -85 189 -143 310 -58 121 -120 262 -138 313 -43 122 -88
198 -259 443 -134 192 -264 400 -312 497 -11 24 -27 71 -34 105 -7 34 -14 51
-14 37z"/>
<path d="M3389 1758 c-7 -13 -14 -57 -17 -98 -5 -91 17 -158 78 -238 22 -29
40 -54 40 -57 0 -2 -33 -6 -72 -8 l-73 -3 82 -2 81 -2 133 -152 c182 -210 196
-248 160 -423 -11 -55 -23 -127 -26 -160 -3 -33 6 1 20 75 40 210 39 206 20
276 -16 60 -28 77 -174 245 -202 235 -217 254 -241 317 -23 61 -26 158 -6 215
15 42 13 48 -5 15z"/>
<path d="M6345 1741 c20 -59 19 -151 -3 -209 -27 -69 -61 -115 -232 -307 -159
-178 -185 -216 -194 -280 l-6 -40 13 45 c21 71 29 81 208 283 186 209 229 277
237 372 6 68 -4 137 -23 161 -13 16 -13 13 0 -25z"/>
<path d="M1851 1750 c0 -8 6 -44 15 -80 9 -36 20 -101 24 -145 l9 -80 -4 85
c-4 73 -41 262 -44 220z"/>
<path d="M7901 1634 c-13 -60 -21 -122 -18 -139 4 -27 4 -27 6 8 0 20 10 78
21 129 12 50 19 96 17 101 -2 6 -13 -39 -26 -99z"/>
<path d="M2613 1597 c100 -48 127 -65 128 -81 1 -18 2 -19 6 -3 3 13 10 16 21
11 155 -67 433 -154 487 -154 11 1 -39 16 -112 35 -150 39 -368 122 -525 201
-59 30 -113 54 -120 53 -7 0 44 -28 115 -62z"/>
<path d="M2753 1455 c0 -22 2 -30 4 -17 2 12 2 30 0 40 -3 9 -5 -1 -4 -23z"/>
<path d="M7003 1450 c0 -25 2 -35 4 -22 2 12 2 32 0 45 -2 12 -4 2 -4 -23z"/>
<path d="M7893 1415 c0 -27 2 -38 4 -22 2 15 2 37 0 50 -2 12 -4 0 -4 -28z"/>
<path d="M4664 1350 c0 -52 1 -74 3 -47 2 26 2 68 0 95 -2 26 -3 4 -3 -48z"/>
<path d="M1883 1390 c0 -25 2 -35 4 -22 2 12 2 32 0 45 -2 12 -4 2 -4 -23z"/>
<path d="M2763 1350 c0 -30 2 -43 4 -27 2 15 2 39 0 55 -2 15 -4 2 -4 -28z"/>
<path d="M5043 1320 c0 -47 2 -66 4 -42 2 23 2 61 0 85 -2 23 -4 4 -4 -43z"/>
<path d="M6993 1350 c0 -30 2 -43 4 -27 2 15 2 39 0 55 -2 15 -4 2 -4 -28z"/>
<path d="M7367 1306 c-9 -42 -33 -113 -53 -157 -35 -80 -74 -235 -73 -294 0
-16 9 19 20 79 12 71 33 141 59 203 39 91 75 214 68 235 -2 6 -11 -24 -21 -66z"/>
<path d="M3293 1363 c9 -2 25 -2 35 0 9 3 1 5 -18 5 -19 0 -27 -2 -17 -5z"/>
<path d="M6343 1353 c15 -2 39 -2 55 0 15 2 2 4 -28 4 -30 0 -43 -2 -27 -4z"/>
<path d="M7903 1315 c0 -27 2 -38 4 -22 2 15 2 37 0 50 -2 12 -4 0 -4 -28z"/>
<path d="M1873 1290 c0 -25 2 -35 4 -22 2 12 2 32 0 45 -2 12 -4 2 -4 -23z"/>
<path d="M2401 1277 c-1 -11 17 -64 40 -120 22 -55 46 -126 54 -156 7 -31 14
-47 14 -36 1 30 -23 112 -54 185 -15 36 -34 83 -41 105 -7 22 -13 32 -13 22z"/>
<path d="M2774 1130 c0 -80 2 -112 3 -72 2 39 2 105 0 145 -1 39 -3 7 -3 -73z"/>
<path d="M6984 1130 c0 -80 2 -112 3 -72 2 39 2 105 0 145 -1 39 -3 7 -3 -73z"/>
<path d="M7913 1220 c0 -25 2 -35 4 -22 2 12 2 32 0 45 -2 12 -4 2 -4 -23z"/>
<path d="M1863 1190 c0 -25 2 -35 4 -22 2 12 2 32 0 45 -2 12 -4 2 -4 -23z"/>
<path d="M4673 1180 c0 -30 2 -43 4 -27 2 15 2 39 0 55 -2 15 -4 2 -4 -28z"/>
<path d="M5033 1165 c0 -27 2 -38 4 -22 2 15 2 37 0 50 -2 12 -4 0 -4 -28z"/>
<path d="M7923 1120 c0 -25 2 -35 4 -22 2 12 2 32 0 45 -2 12 -4 2 -4 -23z"/>
<path d="M1853 1085 c0 -27 2 -38 4 -22 2 15 2 37 0 50 -2 12 -4 0 -4 -28z"/>
<path d="M4682 1090 c0 -19 2 -27 5 -17 2 9 2 25 0 35 -3 9 -5 1 -5 -18z"/>
<path d="M5017 1062 c-4 -29 -19 -91 -33 -139 -14 -47 -23 -93 -22 -102 5 -24
70 245 66 271 -2 13 -7 0 -11 -30z"/>
<path d="M7933 1020 c0 -25 2 -35 4 -22 2 12 2 32 0 45 -2 12 -4 2 -4 -23z"/>
<path d="M4690 1034 c0 -12 11 -59 24 -105 13 -46 27 -93 30 -104 3 -11 4 -6
2 10 -6 46 -55 223 -56 199z"/>
<path d="M1843 985 c0 -27 2 -38 4 -22 2 15 2 37 0 50 -2 12 -4 0 -4 -28z"/>
<path d="M2763 925 c0 -27 2 -38 4 -22 2 15 2 37 0 50 -2 12 -4 0 -4 -28z"/>
<path d="M6993 925 c0 -27 2 -38 4 -22 2 15 2 37 0 50 -2 12 -4 0 -4 -28z"/>
<path d="M7943 925 c0 -27 2 -38 4 -22 2 15 2 37 0 50 -2 12 -4 0 -4 -28z"/>
<path d="M2517 875 c3 -38 7 -72 9 -74 7 -8 3 64 -6 104 -7 31 -7 24 -3 -30z"/>
<path d="M1833 885 c0 -27 2 -38 4 -22 2 15 2 37 0 50 -2 12 -4 0 -4 -28z"/>
<path d="M5902 880 c0 -14 2 -19 5 -12 2 6 2 18 0 25 -3 6 -5 1 -5 -13z"/>
<path d="M2753 825 c0 -27 2 -38 4 -22 2 15 2 37 0 50 -2 12 -4 0 -4 -28z"/>
<path d="M7003 830 c0 -25 2 -35 4 -22 2 12 2 32 0 45 -2 12 -4 2 -4 -23z"/>
<path d="M7953 825 c0 -27 2 -38 4 -22 2 15 2 37 0 50 -2 12 -4 0 -4 -28z"/>
<path d="M5910 844 c1 -25 48 -256 49 -237 1 24 -38 236 -45 242 -2 2 -4 0 -4
-5z"/>
<path d="M1823 785 c0 -27 2 -38 4 -22 2 15 2 37 0 50 -2 12 -4 0 -4 -28z"/>
<path d="M7233 775 c0 -27 2 -38 4 -22 2 15 2 37 0 50 -2 12 -4 0 -4 -28z"/>
<path d="M2533 735 c0 -33 2 -45 4 -27 2 18 2 45 0 60 -2 15 -4 0 -4 -33z"/>
<path d="M7963 730 c0 -25 2 -35 4 -22 2 12 2 32 0 45 -2 12 -4 2 -4 -23z"/>
<path d="M4743 720 c0 -25 2 -35 4 -22 2 12 2 32 0 45 -2 12 -4 2 -4 -23z"/>
<path d="M4963 715 c0 -22 2 -30 4 -17 2 12 2 30 0 40 -3 9 -5 -1 -4 -23z"/>
<path d="M1813 685 c0 -27 2 -38 4 -22 2 15 2 37 0 50 -2 12 -4 0 -4 -28z"/>
<path d="M7221 674 c-1 -50 17 -69 83 -84 83 -18 161 -71 179 -120 4 -11 6
-10 6 4 2 42 -101 111 -189 128 -55 10 -62 17 -71 70 l-6 43 -2 -41z"/>
<path d="M4733 620 c0 -30 2 -43 4 -27 2 15 2 39 0 55 -2 15 -4 2 -4 -28z"/>
<path d="M7971 647 c0 -16 6 -43 14 -60 31 -64 48 -77 117 -92 36 -7 80 -21
98 -30 41 -21 110 -84 120 -110 7 -16 9 -17 9 -3 2 49 -110 127 -218 152 -34
8 -69 20 -77 27 -21 18 -46 68 -55 109 -6 32 -7 33 -8 7z"/>
<path d="M4973 615 c0 -27 2 -38 4 -22 2 15 2 37 0 50 -2 12 -4 0 -4 -28z"/>
<path d="M2522 630 c-7 -11 -22 -20 -34 -20 -12 0 -19 -3 -15 -6 11 -11 55 5
61 22 9 24 2 26 -12 4z"/>
<path d="M1792 597 c-17 -48 -54 -78 -108 -88 -69 -13 -132 -46 -181 -96 -35
-34 -43 -49 -43 -79 0 -47 54 -104 97 -103 l28 1 -32 9 c-38 11 -83 62 -83 95
0 57 147 164 225 164 17 0 41 7 53 16 24 17 65 89 60 105 -2 6 -9 -5 -16 -24z"/>
<path d="M2737 575 c-10 -87 -25 -133 -48 -145 -11 -6 -52 -20 -92 -30 -40
-10 -62 -19 -51 -19 43 -2 154 39 168 62 18 27 39 134 34 168 -2 13 -7 -3 -11
-36z"/>
<path d="M7011 600 c-1 -50 24 -147 43 -169 10 -11 46 -26 81 -35 89 -22 105
-19 21 5 -38 11 -76 24 -86 29 -19 10 -37 67 -50 151 -6 42 -8 46 -9 19z"/>
<path d="M4522 595 c0 -16 2 -22 5 -12 2 9 2 23 0 30 -3 6 -5 -1 -5 -18z"/>
<path d="M2374 570 c-93 -53 -118 -112 -70 -167 23 -27 28 -28 123 -29 l98 -2
-92 7 c-78 5 -95 10 -117 30 -40 38 -34 72 20 120 25 22 64 46 87 55 24 8 33
15 22 15 -11 0 -43 -12 -71 -29z"/>
<path d="M5182 560 c0 -19 2 -27 5 -17 2 9 2 25 0 35 -3 9 -5 1 -5 -18z"/>
<path d="M5962 550 c0 -19 2 -27 5 -17 2 9 2 25 0 35 -3 9 -5 1 -5 -18z"/>
<path d="M4533 505 c0 -33 2 -45 4 -27 2 18 2 45 0 60 -2 15 -4 0 -4 -33z"/>
<path d="M3763 515 c0 -22 2 -30 4 -17 2 12 2 30 0 40 -3 9 -5 -1 -4 -23z"/>
<path d="M4723 490 c0 -36 2 -50 4 -32 2 17 2 47 0 65 -2 17 -4 3 -4 -33z"/>
<path d="M4983 480 c0 -36 2 -50 4 -32 2 17 2 47 0 65 -2 17 -4 3 -4 -33z"/>
<path d="M5173 440 c0 -41 2 -58 4 -37 2 20 2 54 0 75 -2 20 -4 3 -4 -38z"/>
<path d="M5973 470 c0 -25 2 -35 4 -22 2 12 2 32 0 45 -2 12 -4 2 -4 -23z"/>
<path d="M7701 469 c-1 -8 8 -43 20 -77 18 -55 27 -66 66 -89 48 -28 207 -74
252 -72 14 0 -5 7 -43 15 -104 20 -189 51 -224 82 -21 19 -37 47 -51 92 -11
36 -20 58 -20 49z"/>
<path d="M3753 430 c0 -25 2 -35 4 -22 2 12 2 32 0 45 -2 12 -4 2 -4 -23z"/>
<path d="M7476 433 c-9 -28 -29 -44 -69 -53 -31 -8 -31 -8 -5 -9 33 -1 93 48
86 70 -3 10 -7 8 -12 -8z"/>
<path d="M4532 395 c-5 -67 -11 -75 -59 -75 -78 0 -130 -19 -168 -61 -38 -43
-42 -63 -21 -113 25 -60 44 -66 204 -66 79 0 152 5 163 10 24 13 49 62 48 92
-1 17 -3 14 -11 -12 -5 -19 -19 -45 -31 -57 -19 -22 -28 -23 -169 -23 -144 0
-150 1 -173 24 -35 35 -43 91 -18 124 33 44 78 64 154 70 79 5 93 18 86 80 -3
32 -4 33 -5 7z"/>
<path d="M5983 380 c0 -25 2 -35 4 -22 2 12 2 32 0 45 -2 12 -4 2 -4 -23z"/>
<path d="M4713 335 c0 -38 2 -53 4 -32 2 20 2 52 0 70 -2 17 -4 1 -4 -38z"/>
<path d="M4993 330 c0 -36 2 -50 4 -32 2 17 2 47 0 65 -2 17 -4 3 -4 -33z"/>
<path d="M3740 351 c0 -45 -10 -62 -44 -77 -23 -10 -26 -13 -11 -13 35 0 57
25 62 73 3 26 3 46 -1 46 -3 0 -6 -13 -6 -29z"/>
<path d="M7248 373 c12 -2 30 -2 40 0 9 3 -1 5 -23 4 -22 0 -30 -2 -17 -4z"/>
<path d="M5181 353 c-2 -33 12 -43 58 -41 l46 1 -44 6 c-31 4 -46 12 -52 26
-4 11 -8 15 -8 8z"/>
<path d="M5991 314 c-2 -34 33 -57 91 -60 l53 -3 -45 8 c-59 9 -88 26 -93 53
-4 22 -4 22 -6 2z"/>
<path d="M8315 298 c-21 -45 -61 -62 -158 -69 l-92 -7 95 2 c70 1 102 6 121
19 26 17 56 63 48 71 -3 3 -9 -5 -14 -16z"/>
<path d="M5327 298 c56 -12 113 -65 113 -104 0 -37 -33 -92 -63 -104 -17 -7
-18 -9 -4 -9 36 -2 77 61 77 118 0 48 -85 113 -143 110 -12 -1 -3 -5 20 -11z"/>
<path d="M4702 230 c0 -14 2 -19 5 -12 2 6 2 18 0 25 -3 6 -5 1 -5 -13z"/>
<path d="M5002 230 c0 -14 2 -19 5 -12 2 6 2 18 0 25 -3 6 -5 1 -5 -13z"/>
<path d="M6180 234 c60 -21 110 -60 111 -87 1 -16 3 -17 6 -5 2 9 0 26 -6 36
-12 23 -106 72 -135 72 -12 -1 -1 -8 24 -16z"/>
<path d="M1618 223 c12 -2 30 -2 40 0 9 3 -1 5 -23 4 -22 0 -30 -2 -17 -4z"/>
<path d="M5011 182 c-1 -30 24 -79 48 -92 33 -17 34 -11 3 15 -17 14 -35 42
-40 63 -7 26 -10 30 -11 14z"/>
<path d="M6287 73 c-4 -20 -16 -38 -34 -48 -19 -10 -22 -15 -9 -13 25 4 59 50
54 74 -3 13 -6 9 -11 -13z"/>
</g>
</svg>
